<mxfile host="app.diagrams.net" modified="2021-06-29T10:32:28.066Z" agent="5.0 (Macintosh; Intel Mac OS X 10_15_7) AppleWebKit/537.36 (KHTML, like Gecko) Chrome/91.0.4472.114 Safari/537.36" etag="TZXe4UKMbLM2eFDDxYGl" version="14.8.2" type="github">
  <diagram id="9hqybfcc5q5ypudS5BrD" name="Page-1">
    <mxGraphModel dx="1426" dy="771" grid="1" gridSize="10" guides="1" tooltips="1" connect="1" arrows="1" fold="1" page="1" pageScale="1" pageWidth="827" pageHeight="1169" math="0" shadow="0">
      <root>
        <mxCell id="0" />
        <mxCell id="1" parent="0" />
        <mxCell id="EOSwnPT17PY9McPGaiq8-3" style="edgeStyle=orthogonalEdgeStyle;rounded=0;orthogonalLoop=1;jettySize=auto;html=1;exitX=0;exitY=0.5;exitDx=0;exitDy=0;entryX=1;entryY=0.5;entryDx=0;entryDy=0;" edge="1" parent="1" source="EOSwnPT17PY9McPGaiq8-1" target="EOSwnPT17PY9McPGaiq8-2">
          <mxGeometry relative="1" as="geometry" />
        </mxCell>
        <mxCell id="EOSwnPT17PY9McPGaiq8-5" style="edgeStyle=orthogonalEdgeStyle;rounded=0;orthogonalLoop=1;jettySize=auto;html=1;exitX=0.5;exitY=0;exitDx=0;exitDy=0;entryX=0.5;entryY=1;entryDx=0;entryDy=0;" edge="1" parent="1" source="EOSwnPT17PY9McPGaiq8-1" target="EOSwnPT17PY9McPGaiq8-4">
          <mxGeometry relative="1" as="geometry" />
        </mxCell>
        <mxCell id="EOSwnPT17PY9McPGaiq8-7" style="edgeStyle=orthogonalEdgeStyle;rounded=0;orthogonalLoop=1;jettySize=auto;html=1;exitX=1;exitY=0.5;exitDx=0;exitDy=0;entryX=0.5;entryY=1;entryDx=0;entryDy=0;" edge="1" parent="1" source="EOSwnPT17PY9McPGaiq8-1" target="EOSwnPT17PY9McPGaiq8-6">
          <mxGeometry relative="1" as="geometry" />
        </mxCell>
        <mxCell id="EOSwnPT17PY9McPGaiq8-1" value="&lt;font color=&quot;#003366&quot; style=&quot;font-size: 18px&quot;&gt;Trade 24/7&lt;/font&gt;" style="whiteSpace=wrap;html=1;aspect=fixed;fillColor=#dae8fc;strokeColor=#6c8ebf;" vertex="1" parent="1">
          <mxGeometry x="340" y="330" width="180" height="180" as="geometry" />
        </mxCell>
        <mxCell id="EOSwnPT17PY9McPGaiq8-2" value="Data APIs" style="rounded=1;whiteSpace=wrap;html=1;" vertex="1" parent="1">
          <mxGeometry x="60" y="340" width="120" height="60" as="geometry" />
        </mxCell>
        <mxCell id="EOSwnPT17PY9McPGaiq8-9" style="edgeStyle=orthogonalEdgeStyle;rounded=0;orthogonalLoop=1;jettySize=auto;html=1;entryX=0.5;entryY=1;entryDx=0;entryDy=0;" edge="1" parent="1" source="EOSwnPT17PY9McPGaiq8-4" target="EOSwnPT17PY9McPGaiq8-8">
          <mxGeometry relative="1" as="geometry" />
        </mxCell>
        <mxCell id="EOSwnPT17PY9McPGaiq8-4" value="Determine whether to buy/sell" style="rounded=1;whiteSpace=wrap;html=1;" vertex="1" parent="1">
          <mxGeometry x="40" y="110" width="120" height="70" as="geometry" />
        </mxCell>
        <mxCell id="EOSwnPT17PY9McPGaiq8-6" value="Long term value of the portfolio" style="rounded=1;whiteSpace=wrap;html=1;" vertex="1" parent="1">
          <mxGeometry x="490" y="110" width="120" height="60" as="geometry" />
        </mxCell>
        <mxCell id="EOSwnPT17PY9McPGaiq8-8" value="Notifying users" style="rounded=1;whiteSpace=wrap;html=1;" vertex="1" parent="1">
          <mxGeometry x="190" y="50" width="120" height="60" as="geometry" />
        </mxCell>
      </root>
    </mxGraphModel>
  </diagram>
</mxfile>
